<svg xmlns="http://www.w3.org/2000/svg" xmlns:xlink="http://www.w3.org/1999/xlink" width="20" height="20" viewBox="0 0 20 20"><defs><path id="juz7a" d="M645.33 1531.33c0 .57-.43 1-1 1h-5v-6h3.34v-4h-3.34v-1.66c0-.2.14-.34.34-.34H643v-4h-3.7a4.38 4.38 0 0 0-3.97 4.34v1.66h-2.66v4h2.66v6h-7.66c-.57 0-1-.43-1-1v-16.66c0-.57.43-1 1-1h16.66c.57 0 1 .43 1 1v16.66zm-9.33-5.66h-2.67V1523H636v-2.33a3.7 3.7 0 0 1 3.33-3.67h3v2.67h-2.66c-.57 0-1 .43-1 1v2.33H642v2.67h-3.33v6.66H636zm8.33-12.67h-16.66c-.94 0-1.67.73-1.67 1.67v16.66c0 .94.73 1.67 1.67 1.67h16.66c.94 0 1.67-.73 1.67-1.67v-16.66c0-.94-.73-1.67-1.67-1.67z"/></defs><g><g opacity=".6" transform="translate(-626 -1513)"><use xlink:href="#juz7a"/></g></g></svg>