<svg xmlns="http://www.w3.org/2000/svg" xmlns:xlink="http://www.w3.org/1999/xlink" width="13" height="25" viewBox="0 0 13 25"><defs><path id="wxa7a" d="M1461.42 1604.32h2.82v11.28c0 .22.18.4.41.4h4.78a.4.4 0 0 0 .42-.4v-11.23h3.24c.21 0 .4-.16.41-.36l.5-4.15a.4.4 0 0 0-.1-.32.42.42 0 0 0-.32-.13h-3.73v-2.6c0-.79.43-1.19 1.3-1.19h2.43a.4.4 0 0 0 .42-.4v-3.81a.4.4 0 0 0-.42-.4h-3.36l-.16-.01c-.58 0-2.6.11-4.21 1.54a4.22 4.22 0 0 0-1.47 3.82v3.05h-2.96a.4.4 0 0 0-.42.4v4.1c0 .22.19.4.42.4z"/></defs><g><g transform="translate(-1461 -1591)"><use fill="#6d6f7b" xlink:href="#wxa7a"/></g></g></svg>