<svg xmlns="http://www.w3.org/2000/svg" xmlns:xlink="http://www.w3.org/1999/xlink" width="22" height="21" viewBox="0 0 22 21"><defs><path id="mdyaa" d="M585.46 1516.38c-.4.4-.95.64-1.53.6-.55 0-1.14-.2-1.54-.6a2.1 2.1 0 0 1 0-3.06c.4-.38.95-.6 1.57-.6a2.17 2.17 0 0 1 2.16 2.14c0 .56-.22 1.13-.66 1.52zm-1.5-4.37c-.8 0-1.53.29-2.08.82a2.79 2.79 0 0 0 0 4.05c.55.54 1.32.86 2.05.82h.07c.73 0 1.43-.28 1.98-.82.55-.53.88-1.24.88-2.02.03-.75-.3-1.46-.85-2a2.8 2.8 0 0 0-2.05-.85z"/><path id="mdyab" d="M585.76 1531.96c0 .18-.19.32-.37.32h-2.93c-.18 0-.36-.18-.36-.36v-12.44c0-.18.14-.36.33-.36h2.96c.18 0 .37.18.37.36zm-.37-13.55h-2.96c-.59 0-1.06.46-1.06 1.07v12.44c0 .57.5 1.07 1.1 1.07h2.92c.59 0 1.1-.5 1.1-1.03v-12.48c0-.57-.51-1.07-1.1-1.07z"/><path id="mdyac" d="M602.23 1532.24l-.04.04h-3.59l-.03-7.65c0-.85-.22-1.49-.7-1.95a2.92 2.92 0 0 0-2.05-.82 2.78 2.78 0 0 0-2.74 2.8v7.62h-4.03v-13.16h3.62l.04.04v2.24l.99-.96.03-.04c.74-1 2.02-1.63 3.37-1.63h.77a4.3 4.3 0 0 1 4.36 4.33v9.14zm-4.4-14.18h-.76c-1.43 0-2.79.6-3.66 1.56v-.5c0-.35-.37-.7-.74-.7h-3.66c-.33 0-.73.28-.73.67v13.26c0 .39.4.64.73.64h4.03c.33 0 .73-.25.73-.64v-7.68c0-1.17.88-2.1 2.01-2.1.59 0 1.14.21 1.54.6.37.33.51.82.51 1.46v7.65c0 .35.37.7.74.7h3.66c.36 0 .73-.35.73-.7v-9.18a5.01 5.01 0 0 0-5.13-5.04z"/></defs><g><g opacity=".6" transform="translate(-581 -1512)"><g opacity=".6"><use xlink:href="#mdyaa"/></g><g opacity=".6"><use xlink:href="#mdyab"/></g><g opacity=".6"><use xlink:href="#mdyac"/></g></g></g></svg>