<svg xmlns="http://www.w3.org/2000/svg" xmlns:xlink="http://www.w3.org/1999/xlink" width="21" height="17" viewBox="0 0 21 17"><defs><path id="t170a" d="M688.71 1518.94l-.21.07v.6c0 6.44-4.8 11.68-10.68 11.68-3.24 0-5.4-.53-6.58-1.1a8.6 8.6 0 0 0 4.98-1.8l.9-.64h-1.08c-2.03 0-3.27-.56-3.98-1.9.64.2 1.31.2 2.06.17.29-.04.57-.04.86-.04l.1-.7a6.42 6.42 0 0 1-3.74-3.22c.72.31 1.5.39 2.21.39h1.1l-.88-.64c-.75-.53-2.96-2.4-1.9-5.1 2.29 2.23 4.46 3.26 8.37 3.97l.43.07v-1c0-2.19 1.7-4 3.84-4.03.82-.03 2.18.71 2.57.92.21.1.42.14.64.07a36.5 36.5 0 0 0 1.88-.7 5.66 5.66 0 0 1-1.31 1.48c-.15.1-.18.32-.11.5.07.17.28.25.46.17l1.4-.46c-.26.46-.65 1-1.33 1.24zm2.14-2.01c-.1-.11-.28-.15-.43-.11l-.7.25c.42-.5.7-1.03.88-1.52.07-.18.04-.32-.07-.43a.38.38 0 0 0-.43-.07c-1 .43-1.85.78-2.56 1 0 .03-.04 0-.07 0-.57-.33-1.96-1.03-2.96-1.03a4.69 4.69 0 0 0-4.55 4.74v.14c-3.7-.71-5.73-1.77-7.94-4.07l-.35-.35-.22.42c-1.2 2.3-.35 4.39 1.03 5.8a2.91 2.91 0 0 1-1.46-.63c-.14-.11-.32-.15-.5-.04-.14.07-.2.28-.17.46.5 1.66 1.74 3 3.1 3.82-.65 0-1.18-.07-1.71-.42a.5.5 0 0 0-.5.03c-.14.1-.22.28-.14.46.64 1.8 1.88 2.76 3.88 3a8.77 8.77 0 0 1-4.49 1.14.5.5 0 0 0-.46.32c-.07.21 0 .39.14.53 1.28 1.03 4.13 1.63 7.65 1.63 6.27 0 11.4-5.56 11.4-12.39v-.1a3.5 3.5 0 0 0 1.74-2.16.46.46 0 0 0-.11-.42z"/></defs><g><g opacity=".6" transform="translate(-670 -1515)"><use xlink:href="#t170a"/></g></g></svg>