<svg xmlns="http://www.w3.org/2000/svg" xmlns:xlink="http://www.w3.org/1999/xlink" width="29" height="20" viewBox="0 0 29 20"><defs><path id="nwxka" d="M1522.6 1606.68l-6.07 3.12a.95.95 0 0 1-.91-.03.91.91 0 0 1-.45-.79v-6.2c0-.33.17-.63.44-.8a.95.95 0 0 1 .92-.02l6.08 3.1c.3.15.5.46.5.8 0 .35-.2.66-.5.82zm9.27-8.96c-1.05-1.22-2.98-1.72-6.67-1.72h-13.4c-3.77 0-5.74.53-6.78 1.83-1.02 1.26-1.02 3.13-1.02 5.71v4.92c0 5 1.2 7.54 7.8 7.54h13.4c3.2 0 4.97-.44 6.12-1.52 1.18-1.1 1.68-2.9 1.68-6.02v-4.92c0-2.72-.08-4.6-1.13-5.82z"/></defs><g><g transform="translate(-1504 -1596)"><use fill="#6d6f7b" xlink:href="#nwxka"/></g></g></svg>